<?xml version="1.0" encoding="utf-8"?>
<!-- Generator: Adobe Illustrator 18.1.1, SVG Export Plug-In . SVG Version: 6.00 Build 0)  -->
<svg version="1.1" id="Layer_1" xmlns="http://www.w3.org/2000/svg" xmlns:xlink="http://www.w3.org/1999/xlink" x="0px" y="0px"
	 viewBox="381.3 631.3 24 24" enable-background="new 381.3 631.3 24 24" xml:space="preserve">
<g>
	<path fill="none" stroke="#000000" stroke-width="1.5" stroke-miterlimit="10" d="M392.8,636c2,0.5,3.5,2,4.1,4"/>
	<path fill="none" stroke="#000000" stroke-width="1.5" stroke-miterlimit="10" d="M397.5,650.6l3.2,3.2c0.7,0.8,2,0.8,2.7,0
		l0.5-0.5c0.8-0.7,0.8-2,0-2.7l-5.2-5.2c0.7-1.3,1.1-2.8,1.1-4.4c0-4.9-3.9-8.8-8.8-8.8c-4.9,0-8.8,3.9-8.9,8.8
		c0,4.9,3.8,8.8,8.7,8.9c1.7,0,3.3-0.4,4.6-1.2"/>
</g>
</svg>
